/* XPM */
static char * uservcoin16_xpm[] = {
"16 16 94 2",
"  	c None",
". 	c #299EE3",
"+ 	c #289CE0",
"@ 	c #299FE4",
"# 	c #08202F",
"$ 	c #000000",
"% 	c #0D3348",
"& 	c #2388C4",
"* 	c #0C1013",
"= 	c #0C1012",
"- 	c #2AA7EF",
"; 	c #2287C1",
"> 	c #A3C7DB",
", 	c #A4A1A0",
"' 	c #0E0E0E",
") 	c #0D0D0D",
"! 	c #A8A6A5",
"~ 	c #99B2C0",
"{ 	c #2AA4EB",
"] 	c #000407",
"^ 	c #D0DCE2",
"/ 	c #FFFFFF",
"( 	c #828282",
"_ 	c #040303",
": 	c #9E9E9E",
"< 	c #A1A1A1",
"[ 	c #050505",
"} 	c #818181",
"| 	c #CCD5DA",
"1 	c #12171A",
"2 	c #E6F0F6",
"3 	c #3C3B3A",
"4 	c #C8D4DC",
"5 	c #CACACB",
"6 	c #3C3C3C",
"7 	c #E3E9ED",
"8 	c #0F1011",
"9 	c #2285BF",
"0 	c #29353D",
"a 	c #F9FFFF",
"b 	c #F4F4F3",
"c 	c #18242B",
"d 	c #16191B",
"e 	c #F4F4F4",
"f 	c #F7FDFF",
"g 	c #232425",
"h 	c #1F7FB6",
"i 	c #496F85",
"j 	c #FCFBFB",
"k 	c #484A4C",
"l 	c #83B3CF",
"m 	c #83A9BF",
"n 	c #484748",
"o 	c #3F5561",
"p 	c #279EE3",
"q 	c #2184BD",
"r 	c #173344",
"s 	c #E3F6FF",
"t 	c #FFFEFE",
"u 	c #3F4A50",
"v 	c #264E66",
"w 	c #264D63",
"x 	c #3F464A",
"y 	c #E0F2FC",
"z 	c #13252F",
"A 	c #29A3E9",
"B 	c #347BA4",
"C 	c #FBFFFF",
"D 	c #FFFFFE",
"E 	c #F2EFEE",
"F 	c #FAFFFF",
"G 	c #2D688C",
"H 	c #2AA5EB",
"I 	c #5597BE",
"J 	c #FEFFFF",
"K 	c #FDFFFF",
"L 	c #4D82A0",
"M 	c #2388C3",
"N 	c #000001",
"O 	c #000C13",
"P 	c #87BAD8",
"Q 	c #B2D5E9",
"R 	c #B1D5E9",
"S 	c #B3D5E9",
"T 	c #00070C",
"U 	c #2AA5EF",
"V 	c #061621",
"W 	c #000408",
"X 	c #00080D",
"Y 	c #000305",
"Z 	c #0B293A",
"` 	c #248DCA",
" .	c #238CC9",
"..	c #248ECC",
"                                ",
"      . + + + + + + + + @       ",
"    # $ $ $ $ $ $ $ $ $ $ %     ",
"  & $ * $ $ $ $ $ $ $ $ = $ -   ",
"  ; $ > , ' $ $ $ $ ) ! ~ $ {   ",
"  ; ] ^ / ( _ : < [ } / | $ {   ",
"  ; 1 2 / 3 4 / / 5 6 / 7 8 {   ",
"  9 0 a b c / / / / d e f g {   ",
"  h i / j k l / / m n j / o p   ",
"  q r s / t u v w x t / y z A   ",
"  ; $ B C D / E E / D F G $ H   ",
"  ; $ $ I J / / / / K L $ $ H   ",
"  M $ N O P Q R R S l T $ $ U   ",
"    V $ $ W X X X X Y $ $ Z     ",
"      `  . . . . . . . ...      ",
"                                "};
