/* XPM */
static char * uservcoin32_xpm[] = {
"32 32 136 2",
"  	c None",
". 	c #2CAFFB",
"+ 	c #2695D4",
"@ 	c #2696D6",
"# 	c #2EB5FF",
"$ 	c #1C6D9C",
"% 	c #000000",
"& 	c #238BC7",
"* 	c #29A2E8",
"= 	c #000102",
"- 	c #2FB7FF",
"; 	c #1E76AA",
"> 	c #289DE2",
", 	c #000508",
"' 	c #31383D",
") 	c #344047",
"! 	c #289DE1",
"~ 	c #032E47",
"{ 	c #F1FFFF",
"] 	c #ACACAC",
"^ 	c #B2B2B2",
"/ 	c #E8FFFF",
"( 	c #00040A",
"_ 	c #1B6087",
": 	c #FFFFFF",
"< 	c #E4E4E4",
"[ 	c #171717",
"} 	c #191919",
"| 	c #E6E6E6",
"1 	c #0A354D",
"2 	c #5DA1C8",
"3 	c #3B3B3B",
"4 	c #424242",
"5 	c #474747",
"6 	c #2E2E2E",
"7 	c #4A758E",
"8 	c #9DDEFF",
"9 	c #141414",
"0 	c #4A4A4B",
"a 	c #D8D8D8",
"b 	c #DCDCDC",
"c 	c #505050",
"d 	c #8AB6CF",
"e 	c #011C2B",
"f 	c #D3F4FF",
"g 	c #F2F2F2",
"h 	c #687983",
"i 	c #6D6D6D",
"j 	c #CAF1FF",
"k 	c #0A486D",
"l 	c #ADADAD",
"m 	c #A9C2D0",
"n 	c #ABABAC",
"o 	c #001E32",
"p 	c #4286AE",
"q 	c #696969",
"r 	c #E9FDFF",
"s 	c #EEEEEE",
"t 	c #2E5A73",
"u 	c #83C9F0",
"v 	c #232323",
"w 	c #032435",
"x 	c #040C10",
"y 	c #709BB4",
"z 	c #00070C",
"A 	c #BEF0FF",
"B 	c #444444",
"C 	c #020D14",
"D 	c #7BCDFD",
"E 	c #7EC3EA",
"F 	c #000204",
"G 	c #B2DDF6",
"H 	c #073652",
"I 	c #E0F7FF",
"J 	c #1C1C1C",
"K 	c #042538",
"L 	c #B3E9FF",
"M 	c #B5E6FF",
"N 	c #000F1A",
"O 	c #D9F9FF",
"P 	c #000810",
"Q 	c #061822",
"R 	c #45BEFF",
"S 	c #EFEFEF",
"T 	c #030100",
"U 	c #104F74",
"V 	c #97E2FF",
"W 	c #95E0FF",
"X 	c #97E4FF",
"Y 	c #082E44",
"Z 	c #030303",
"` 	c #3CAEF1",
" .	c #0E3B55",
"..	c #6CCFFF",
"+.	c #CFCFCF",
"@.	c #000106",
"#.	c #000004",
"$.	c #000001",
"%.	c #63CAFF",
"&.	c #061722",
"*.	c #166796",
"=.	c #9FDDFF",
"-.	c #EAEAEA",
";.	c #DFDFDF",
">.	c #96DEFF",
",.	c #0B3A55",
"'.	c #1D8DCF",
").	c #D0EDFF",
"!.	c #C8ECFF",
"~.	c #136596",
"{.	c #010405",
"].	c #2CAAF4",
"^.	c #F2FAFF",
"/.	c #ECF8FF",
"(.	c #238FCF",
"_.	c #071B27",
":.	c #48C0FF",
"<.	c #3FB2F4",
"[.	c #10405B",
"}.	c #70D0FF",
"|.	c #68CCFF",
"1.	c #071A26",
"2.	c #1E76A9",
"3.	c #196C9C",
"4.	c #3CC3FF",
"5.	c #3EC2FF",
"6.	c #3CC5FF",
"7.	c #0E3E5B",
"8.	c #279ADE",
"9.	c #2FB8FF",
"0.	c #16587D",
"a.	c #207CB1",
"b.	c #289FE5",
"c.	c #207DB3",
"d.	c #207FB6",
"e.	c #2BAAF3",
"                                                                ",
"                                                                ",
"                                                                ",
"          . + + + + + + + + + + + + + + + + + + + @ #           ",
"        $ % % % % % % % % % % % % % % % % % % % % % % &         ",
"      * % % % % % % % % % % % % % % % % % % % % % % % = -       ",
"      ; % % % % % % % % % % % % % % % % % % % % % % % % >       ",
"      ; % % , ' % % % % % % % % % % % % % % % % ) % % % !       ",
"      ; % % ~ { ] % % % % % % % % % % % % % % ^ / ( % % !       ",
"      ; % % _ : : < [ % % % % % % % % % % } | : : 1 % % !       ",
"      ; % % 2 : : : : 3 % % % 4 5 % % % 6 : : : : 7 % % !       ",
"      ; % % 8 : : : : 9 % 0 a : : b c % 9 : : : : d % % !       ",
"      ; % e f : : : g % h : : : : : : i % g : : : j % % !       ",
"      ; % k : : : : l % m : : : : : : n % l : : : : o % !       ",
"      ; % p : : : : q % r : : : : : : s % q : : : : t % !       ",
"      ; % u : : : : v w : : : : : : : : x v : : : : y % !       ",
"      ; z A : : : : B C D : : : : : : E F B : : : : G % !       ",
"      ; H I : : : : : J K L : : : : M N J : : : : : O P !       ",
"      ; Q R : : : : : S T U V W W X Y Z S : : : : : ` % !       ",
"      ; %  ...: : : : : +.% @.#.#.$.% +.: : : : : %.&.% !       ",
"      ; % % *.=.: : : : : -.;.;.;.;.-.: : : : : >.,.% % !       ",
"      ; % % % '.).: : : : : : : : : : : : : : !.~.% % % !       ",
"      ; % % % {.].^.: : : : : : : : : : : : /.(.% % % % !       ",
"      ; % % % % _.:.: : : : : : : : : : : : <.{.% % % % !       ",
"      ; % % % % % [.}.: : : : : : : : : : |.1.% % % % % !       ",
"      2.% % % % % % 3.4.5.5.5.5.5.5.5.5.6.7.% % % % % % !       ",
"      8.% % % % % % % % % % % % % % % % % % % % % % % % #       ",
"      9.0.% % % % % % % % % % % % % % % % % % % % % % a.        ",
"        - b.c.c.c.c.c.c.c.c.c.c.c.c.c.c.c.c.c.c.c.d.e.          ",
"                                                                ",
"                                                                ",
"                                                                "};
