/* XPM */
static char * uservcoin64_xpm[] = {
"64 64 334 2",
"  	c None",
". 	c #2DB2FF",
"+ 	c #2DB4FF",
"@ 	c #2EB3FF",
"# 	c #2DB3FF",
"$ 	c #2FB7FF",
"% 	c #2180B9",
"& 	c #185C85",
"* 	c #175A81",
"= 	c #175B81",
"- 	c #1A6591",
"; 	c #2797DA",
"> 	c #2FB8FF",
", 	c #2DB1FF",
"' 	c #2183BD",
") 	c #030C11",
"! 	c #000000",
"~ 	c #0E364D",
"{ 	c #29A2EA",
"] 	c #2EB4FF",
"^ 	c #1F77AC",
"/ 	c #000001",
"( 	c #05151E",
"_ 	c #2AA3EB",
": 	c #2BAAF4",
"< 	c #103D59",
"[ 	c #145071",
"} 	c #2AA3EA",
"| 	c #092332",
"1 	c #1E76A9",
"2 	c #08212F",
"3 	c #1C6E9E",
"4 	c #082130",
"5 	c #010000",
"6 	c #1C6F9E",
"7 	c #0B2F43",
"8 	c #48758F",
"9 	c #787776",
"0 	c #868483",
"a 	c #4387AF",
"b 	c #15618F",
"c 	c #9BE1FF",
"d 	c #FFFFFF",
"e 	c #ACACAC",
"f 	c #0D0D0D",
"g 	c #101010",
"h 	c #B8B8B8",
"i 	c #88DEFF",
"j 	c #000306",
"k 	c #1A8ACD",
"l 	c #D8F1FF",
"m 	c #E1E1E1",
"n 	c #2A2A2A",
"o 	c #333333",
"p 	c #E6E6E6",
"q 	c #C5F0FF",
"r 	c #063753",
"s 	c #030C12",
"t 	c #249CE3",
"u 	c #FEFEFE",
"v 	c #4F4F4F",
"w 	c #545454",
"x 	c #116A9E",
"y 	c #051925",
"z 	c #62C0F7",
"A 	c #A7A7A7",
"B 	c #AAAAAA",
"C 	c #479FD2",
"D 	c #000102",
"E 	c #093147",
"F 	c #A3E1FF",
"G 	c #CACACA",
"H 	c #464646",
"I 	c #080808",
"J 	c #0B0B0B",
"K 	c #1E1E1E",
"L 	c #CBCBCB",
"M 	c #8AC5E7",
"N 	c #010E16",
"O 	c #196693",
"P 	c #D6F2FF",
"Q 	c #BBBBBB",
"R 	c #D4D4D4",
"S 	c #D8D8D8",
"T 	c #606060",
"U 	c #B3B3B3",
"V 	c #CAE9FB",
"W 	c #031A28",
"X 	c #36A0DF",
"Y 	c #E8F7FF",
"Z 	c #6A6A6A",
"` 	c #454545",
" .	c #DDDDDD",
"..	c #4D4D4D",
"+.	c #0F0F0F",
"@.	c #E4F8FF",
"#.	c #183F55",
"$.	c #020609",
"%.	c #4EC6FF",
"&.	c #F8FDFF",
"*.	c #1B1B1B",
"=.	c #727272",
"-.	c #7E7E7E",
";.	c #F3FCFF",
">.	c #367AA2",
",.	c #0D3952",
"'.	c #69CDFF",
").	c #F3F3F3",
"!.	c #000103",
"~.	c #CACED0",
"{.	c #57B5EC",
"].	c #166C9F",
"^.	c #A6E0FF",
"/.	c #A3A3A3",
"(.	c #122029",
"_.	c #E4F3FC",
":.	c #E5E6E6",
"<.	c #141414",
"[.	c #93E0FF",
"}.	c #000E16",
"|.	c #000101",
"1.	c #1A8FD4",
"2.	c #E4F5FF",
"3.	c #565656",
"4.	c #2A4757",
"5.	c #F6FFFF",
"6.	c #F9F9F9",
"7.	c #272728",
"8.	c #D1F4FF",
"9.	c #074061",
"0.	c #030F16",
"a.	c #30A3E7",
"b.	c #282828",
"c.	c #4F84A4",
"d.	c #525252",
"e.	c #1676AE",
"f.	c #051C29",
"g.	c #6FC7FA",
"h.	c #E5E5E5",
"i.	c #95CDEF",
"j.	c #9B9C9C",
"k.	c #55A7D8",
"l.	c #000305",
"m.	c #0B3B57",
"n.	c #B0E4FF",
"o.	c #D1D1D1",
"p.	c #000D17",
"q.	c #D9FAFF",
"r.	c #E8E8E9",
"s.	c #96CCEA",
"t.	c #011019",
"u.	c #1D71A2",
"v.	c #DCF4FF",
"w.	c #929292",
"x.	c #0E4363",
"y.	c #0F0F0E",
"z.	c #D1EDFE",
"A.	c #061F2E",
"B.	c #3CACEE",
"C.	c #EBF8FF",
"D.	c #414141",
"E.	c #1E7BB2",
"F.	c #F4FDFF",
"G.	c #FEFFFF",
"H.	c #18445D",
"I.	c #E6F9FF",
"J.	c #1E4B64",
"K.	c #040E14",
"L.	c #51C9FF",
"M.	c #FBFDFF",
"N.	c #363636",
"O.	c #1A6692",
"P.	c #52C3FF",
"Q.	c #FAFDFF",
"R.	c #FCFEFF",
"S.	c #5BC3FF",
"T.	c #0B334A",
"U.	c #F6FDFF",
"V.	c #3B85B0",
"W.	c #0F4261",
"X.	c #75D1FF",
"Y.	c #E8E8E8",
"Z.	c #1C73A5",
"`.	c #83D4FF",
" +	c #8ED6FF",
".+	c #104260",
"++	c #010101",
"@+	c #61C3FC",
"#+	c #1774AB",
"$+	c #B2E4FF",
"%+	c #03090D",
"&+	c #1B95DC",
"*+	c #ABE0FF",
"=+	c #B4E6FF",
"-+	c #1273AC",
";+	c #A0E4FF",
">+	c #011623",
",+	c #010506",
"'+	c #2395D8",
")+	c #79CDFF",
"!+	c #061620",
"~+	c #34B7FF",
"{+	c #DCF2FF",
"]+	c #DEF5FF",
"^+	c #2A8CC5",
"/+	c #6DCDFF",
"(+	c #125073",
"_+	c #010406",
":+	c #2286C0",
"<+	c #BFE8FF",
"[+	c #6B6B6B",
"}+	c #0C3147",
"|+	c #3BB6FE",
"1+	c #ECF8FF",
"2+	c #EAF8FF",
"3+	c #ECF9FF",
"4+	c #38A7E9",
"5+	c #030E15",
"6+	c #B2E3FF",
"7+	c #2CB4FF",
"8+	c #11415D",
"9+	c #010405",
"0+	c #279DE2",
"a+	c #D8F0FF",
"b+	c #186490",
"c+	c #3CC2FF",
"d+	c #40C0FF",
"e+	c #3CC1FF",
"f+	c #072332",
"g+	c #C6EAFF",
"h+	c #2CB3FF",
"i+	c #144F72",
"j+	c #061822",
"k+	c #2CA9F4",
"l+	c #41B9FF",
"m+	c #F1FAFF",
"n+	c #F5F5F5",
"o+	c #0A2434",
"p+	c #092230",
"q+	c #092331",
"r+	c #05141C",
"s+	c #EAF7FF",
"t+	c #3CB9FF",
"u+	c #2385BF",
"v+	c #010203",
"w+	c #0F3A53",
"x+	c #2EBCFF",
"y+	c #61C4FF",
"z+	c #EBEBEB",
"A+	c #060606",
"B+	c #53C0FF",
"C+	c #269CE1",
"D+	c #175C83",
"E+	c #27B0FF",
"F+	c #87D2FF",
"G+	c #999999",
"H+	c #9B9B9B",
"I+	c #76CCFF",
"J+	c #26A8F4",
"K+	c #061721",
"L+	c #238AC7",
"M+	c #C3E9FF",
"N+	c #B4E3FF",
"O+	c #2FBCFF",
"P+	c #010303",
"Q+	c #28B0FF",
"R+	c #E3F5FF",
"S+	c #D7F0FF",
"T+	c #23AEFF",
"U+	c #175B83",
"V+	c #081E2B",
"W+	c #2AAAF5",
"X+	c #48BBFF",
"Y+	c #F4FBFF",
"Z+	c #F0FAFF",
"`+	c #41BAFF",
" @	c #228AC6",
".@	c #134B6A",
"+@	c #2AB3FF",
"@@	c #74CCFF",
"#@	c #62C6FF",
"$@	c #27A1E9",
"%@	c #16587D",
"&@	c #29B2FF",
"*@	c #85D2FF",
"=@	c #77CCFF",
"-@	c #27A9F5",
";@	c #010305",
">@	c #2FB4FF",
",@	c #B9E5FF",
"'@	c #134A6A",
")@	c #02070A",
"!@	c #29A3EB",
"~@	c #30B3FF",
"{@	c #E0F4FF",
"]@	c #D0EDFF",
"^@	c #16577D",
"/@	c #081C28",
"(@	c #2CACF7",
"_@	c #45BAFF",
":@	c #EEF9FF",
"<@	c #3FBAFF",
"[@	c #248AC7",
"}@	c #124360",
"|@	c #2EBBFF",
"1@	c #6AC8FF",
"2@	c #28A2EB",
"3@	c #4DBDFF",
"4@	c #58C1FF",
"5@	c #57C1FF",
"6@	c #28AAF7",
"7@	c #2591D1",
"8@	c #2FBEFF",
"9@	c #2EBDFF",
"0@	c #31C3FF",
"a@	c #11435F",
"b@	c #1C72A3",
"c@	c #2798DA",
"d@	c #279ADD",
"e@	c #0A2535",
"f@	c #2FB9FF",
"g@	c #2696D8",
"h@	c #2DB0FE",
"i@	c #175C84",
"j@	c #040C11",
"k@	c #258FCD",
"l@	c #2EB6FF",
"m@	c #2AA2E9",
"n@	c #145072",
"o@	c #0B2D40",
"p@	c #0B2A3C",
"q@	c #0D354B",
"r@	c #1A6997",
"s@	c #2EB5FF",
"                                                                                                                                ",
"                                                                                                                                ",
"                                                                                                                                ",
"                                                                                                                                ",
"                                                                                                                                ",
"                                                                                                                                ",
"                    . + @ @ @ @ @ @ @ @ @ @ @ @ @ @ @ @ @ @ @ @ @ @ @ @ @ @ @ @ @ @ @ @ @ @ @ @ @ @ @ @ .                       ",
"                . # $ % & * = = = = = = = = = = = = = = = = = = = = = = = = = = = = = = = = = = = = * - ; > ,                   ",
"              . , ' ) ! ! ! ! ! ! ! ! ! ! ! ! ! ! ! ! ! ! ! ! ! ! ! ! ! ! ! ! ! ! ! ! ! ! ! ! ! ! ! ! ! ! ~ { .                 ",
"              ] ^ / ! ! ! ! ! ! ! ! ! ! ! ! ! ! ! ! ! ! ! ! ! ! ! ! ! ! ! ! ! ! ! ! ! ! ! ! ! ! ! ! ! ! ! ! ( _ ,               ",
"            . : ! ! ! ! ! ! ! ! ! ! ! ! ! ! ! ! ! ! ! ! ! ! ! ! ! ! ! ! ! ! ! ! ! ! ! ! ! ! ! ! ! ! ! ! ! ! ! < >               ",
"            ] [ ! ! ! ! ! ! ! ! ! ! ! ! ! ! ! ! ! ! ! ! ! ! ! ! ! ! ! ! ! ! ! ! ! ! ! ! ! ! ! ! ! ! ! ! ! ! ! ! } .             ",
"            ] | ! ! ! ! ! ! ! ! ! ! ! ! ! ! ! ! ! ! ! ! ! ! ! ! ! ! ! ! ! ! ! ! ! ! ! ! ! ! ! ! ! ! ! ! ! ! ! ! 1 @             ",
"            . 2 ! ! ! ! ! ! ! ! ! ! ! ! ! ! ! ! ! ! ! ! ! ! ! ! ! ! ! ! ! ! ! ! ! ! ! ! ! ! ! ! ! ! ! ! ! ! ! ! 3 @             ",
"            . 4 ! ! ! ! ! ! ! ! ! ! ! ! ! ! ! ! ! ! ! ! ! ! ! ! ! ! ! ! ! ! ! ! ! ! ! ! ! ! ! ! ! 5 ! ! ! ! ! ! 6 @             ",
"            . 4 ! ! ! ! ! 7 8 9 ! ! ! ! ! ! ! ! ! ! ! ! ! ! ! ! ! ! ! ! ! ! ! ! ! ! ! ! ! ! ! ! 0 a ! ! ! ! ! ! 6 @             ",
"            . 4 ! ! ! ! ! b c d e f ! ! ! ! ! ! ! ! ! ! ! ! ! ! ! ! ! ! ! ! ! ! ! ! ! ! ! ! g h d i j ! ! ! ! ! 6 @             ",
"            . 4 ! ! ! ! ! k l d d m n ! ! ! ! ! ! ! ! ! ! ! ! ! ! ! ! ! ! ! ! ! ! ! ! ! ! o p d d q r ! ! ! ! ! 6 @             ",
"            . 4 ! ! ! ! s t d d d d u v ! ! ! ! ! ! ! ! ! ! ! ! ! ! ! ! ! ! ! ! ! ! ! ! w d d d d d x ! ! ! ! ! 6 @             ",
"            . 4 ! ! ! ! y z d d d d d d A ! ! ! ! ! ! ! ! ! ! ! ! ! ! ! ! ! ! ! ! ! ! B d d d d d d C D ! ! ! ! 6 @             ",
"            . 4 ! ! ! ! E F d d d d d d d G H ! ! ! ! ! ! ! ! I J ! ! ! ! ! ! ! ! K L d d d d d d d M N ! ! ! ! 6 @             ",
"            . 4 ! ! ! ! O P d d d d d d d d Q ! ! ! ! ! ! ! w R S T ! ! ! ! ! ! ! U d d d d d d d d V W ! ! ! ! 6 @             ",
"            . 4 ! ! ! ! X Y d d d d d d d d Z ! ! ! ! f `  .d d d d p ..+.! ! ! ! Z d d d d d d d d @.#.! ! ! ! 6 @             ",
"            . 4 ! ! ! $.%.&.d d d d d d d d *.! ! ! =. .d d d d d d d d m -.! ! ! *.d d d d d d d d ;.>.! ! ! ! 6 @             ",
"            . 4 ! ! ! ,.'.d d d d d d d d ).! ! !.~.d d d d d d d d d d d d S ! ! ! ).d d d d d d d d {.! ! ! ! 6 @             ",
"            . 4 ! ! ! ].^.d d d d d d d d /.! ! (._.d d d d d d d d d d d d :.<.! ! /.d d d d d d d d [.}.! ! ! 6 @             ",
"            . 4 ! ! |.1.2.d d d d d d d d 3.! ! 4.5.d d d d d d d d d d d d 6.7.! ! 3.d d d d d d d d 8.9.! ! ! 6 @             ",
"            . 4 ! ! 0.a.d d d d d d d d 6.b.! ! c.d d d d d d d d d d d d d d d.! ! b.6.d d d d d d d d e.! ! ! 6 @             ",
"            . 4 ! ! f.g.d d d d d d d d h.<.! ! i.d d d d d d d d d d d d d d j.! ! <.h.d d d d d d d d k.l.! ! 6 @             ",
"            . 4 ! ! m.n.d d d d d d d d o.! ! p.q.d d d d d d d d d d d d d d r.! ! ! o.d d d d d d d d s.t.! ! 6 @             ",
"            . 4 ! ! u.v.d d d d d d d d w.! ! x.d d d d d d d d d d d d d d d d y.! ! w.d d d d d d d d z.A.! ! 6 @             ",
"            . 4 ! ! B.C.d d d d d d d d D.! ! E.F.d d d d d d d d d d d d d d G.H.! ! D.d d d d d d d d I.J.! ! 6 @             ",
"            . 4 ! K.L.M.d d d d d d d d N.! ! O.P.Q.d d d d d d d d d d d d R.S.T.! ! N.d d d d d d d d U.V.! ! 6 @             ",
"            . 4 ! W.X.d d d d d d d d d Y.<.! ! Z.`.d d d d d d d d d d d d  +.+! ++<.Y.d d d d d d d d d @+! ! 6 @             ",
"            . 4 ! #+$+d d d d d d d d d d G ++! %+&+*+d d d d d d d d d d =+-+! ! ++G d d d d d d d d d d ;+>+! 6 @             ",
"            . 4 ,+'+)+d d d d d d d d d d d U ++! !+~+{+d d d d d d d d ]+^+! ! ++U d d d d d d d d d d d /+(+! 6 @             ",
"            . 4 _+:+@ <+d d d d d d d d d d d [+! ! }+|+1+C.2+2+2+2+C.3+4+5+/ ! [+d d d d d d d d d d d 6+7+8+! 6 @             ",
"            . 4 ! 9+0+@ a+d d d d d d d d d d d T ! ! b+c+d+d+d+d+d+d+e+f+! ! T d d d d d d d d d d d g+h+i+! ! 6 @             ",
"            . 4 ! ! j+k+l+m+d d d d d d d d d d n+n ! ! o+p+p+p+p+p+q+r+! ! n n+d d d d d d d d d d s+t+u+v+! ! 6 @             ",
"            . 4 ! ! ! w+x+y+d d d d d d d d d d d z+A+! ! ! ! ! ! ! ! ! ! A+z+d d d d d d d d d d d B+C+9+! ! ! 6 @             ",
"            . 4 ! ! ! ! D+E+F+d d d d d d d d d d d m G+H+H+H+H+H+H+H+H+G+m d d d d d d d d d d d I+J+K+! ! ! ! 6 @             ",
"            . 4 ! ! ! ! v+L+@ M+d d d d d d d d d d d d d d d d d d d d d d d d d d d d d d d d N+O+w+! ! ! ! ! 6 @             ",
"            . 4 ! ! ! ! ! P+{ Q+R+d d d d d d d d d d d d d d d d d d d d d d d d d d d d d d S+T+U+! ! ! ! ! ! 6 @             ",
"            . 4 ! ! ! ! ! ! V+W+X+Y+d d d d d d d d d d d d d d d d d d d d d d d d d d d d Z+`+ @v+! ! ! ! ! ! 6 @             ",
"            . 4 ! ! ! ! ! ! ! .@+@@@d d d d d d d d d d d d d d d d d d d d d d d d d d d d #@$@v+! ! ! ! ! ! ! 6 @             ",
"            . 4 ! ! ! ! ! ! ! ! %@&@*@d d d d d d d d d d d d d d d d d d d d d d d d d d =@-@V+! ! ! ! ! ! ! ! 6 @             ",
"            . 4 ! ! ! ! ! ! ! ! ;@L+>@g+d d d d d d d d d d d d d d d d d d d d d d d d ,@+ '@! ! ! ! ! ! ! ! ! 6 @             ",
"            . 4 ! ! ! ! ! ! ! ! ! )@!@~@{@d d d d d d d d d d d d d d d d d d d d d d ]@+ ^@! ! ! ! ! ! ! ! ! ! 6 @             ",
"            . 4 ! ! ! ! ! ! ! ! ! ! /@(@_@Y+d d d d d d d d d d d d d d d d d d d d :@<@[@9+! ! ! ! ! ! ! ! ! ! 6 @             ",
"            . 4 ! ! ! ! ! ! ! ! ! ! ! }@|@1@d d d d d d d d d d d d d d d d d d d d S.2@)@! ! ! ! ! ! ! ! ! ! ! 6 @             ",
"            . 4 ! ! ! ! ! ! ! ! ! ! ! ! - Q+3@4@5@5@5@5@5@5@5@5@5@5@5@5@5@5@5@5@4@X+6@/@! ! ! ! ! ! ! ! ! ! ! ! 3 @             ",
"            @ 4 ! ! ! ! ! ! ! ! ! ! ! ! 9+7@8@9@9@9@9@9@9@9@9@9@9@9@9@9@9@9@9@9@9@0@a@! ! ! ! ! ! ! ! ! ! ! ! ! b@@             ",
"            ] 8+! ! ! ! ! ! ! ! ! ! ! ! ! ! ! ! ! ! ! ! ! ! ! ! ! ! ! ! ! ! ! ! ! ! ! ! ! ! ! ! ! ! ! ! ! ! ! ! c@#             ",
"            . d@! ! ! ! ! ! ! ! ! ! ! ! ! ! ! ! ! ! ! ! ! ! ! ! ! ! ! ! ! ! ! ! ! ! ! ! ! ! ! ! ! ! ! ! ! ! ! e@f@              ",
"              $ ^@! ! ! ! ! ! ! ! ! ! ! ! ! ! ! ! ! ! ! ! ! ! ! ! ! ! ! ! ! ! ! ! ! ! ! ! ! ! ! ! ! ! ! ! ! )@g@,               ",
"              , h@i@! ! ! ! ! ! ! ! ! ! ! ! ! ! ! ! ! ! ! ! ! ! ! ! ! ! ! ! ! ! ! ! ! ! ! ! ! ! ! ! ! ! ! j@k@.                 ",
"                , l@m@n@o@p@p@p@p@p@p@p@p@p@p@p@p@p@p@p@p@p@p@p@p@p@p@p@p@p@p@p@p@p@p@p@p@p@p@p@p@p@p@q@r@] .                   ",
"                    . ] s@s@s@s@s@s@s@s@s@s@s@s@s@s@s@s@s@s@s@s@s@s@s@s@s@s@s@s@s@s@s@s@s@s@s@s@s@s@s@s@@ .                     ",
"                                                                                                                                ",
"                                                                                                                                ",
"                                                                                                                                ",
"                                                                                                                                ",
"                                                                                                                                ",
"                                                                                                                                "};
